<?xml version="1.0" encoding="utf-8" ?>
<svg xmlns="http://www.w3.org/2000/svg" xmlns:xlink="http://www.w3.org/1999/xlink" width="213" height="227">
	<path fill="white" d="M0 0L212 0L212 226L0 226L0 0Z"/>
	<path fill="none" stroke="#222430" stroke-width="1.5" stroke-linejoin="round" transform="translate(190.379 119.711)" d="M0 0.5L5.9629998 0.5L11.927 0.5L5.9629998 0.5L0 0.5Z" fill-rule="evenodd"/>
	<path fill="none" stroke="#222430" stroke-width="1.5" stroke-linejoin="round" transform="translate(188.829 101.841)" d="M0 2.276C0 2.276 2.6210001 1.767 5.8540001 1.138C9.0869999 0.50999999 11.707 0 11.707 0C11.707 0 9.0869999 0.50999999 5.8540001 1.138C2.6210001 1.767 0 2.276 0 2.276Z" fill-rule="evenodd"/>
	<path fill="none" stroke="#222430" stroke-width="1.5" stroke-linejoin="round" transform="translate(184.238 84.1473)" d="M0 4.4679999C0 4.4679999 2.4749999 3.4679999 5.5289998 2.234C8.5830002 1 11.058 0 11.058 0C11.058 0 8.5830002 1 5.5289998 2.234C2.4749999 3.4679999 0 4.4679999 0 4.4679999Z" fill-rule="evenodd"/>
	<path fill="none" stroke="#222430" stroke-width="1.5" stroke-linejoin="round" transform="translate(176.772 67.7782)" d="M0 6.4959998C0 6.4959998 2.2390001 5.0419998 5.0009999 3.2479999C7.763 1.454 10.002 0 10.002 0C10.002 0 7.763 1.454 5.0009999 3.2479999C2.2390001 5.0419998 0 6.4959998 0 6.4959998Z" fill-rule="evenodd"/>
	<path fill="none" stroke="#222430" stroke-width="1.5" stroke-linejoin="round" transform="translate(166.707 53.3361)" d="M0 8.2849998C0 8.2849998 1.921 6.4299998 4.29 4.1430001C6.6589999 1.855 8.5790005 0 8.5790005 0C8.5790005 0 6.6589999 1.855 4.29 4.1430001C1.921 6.4299998 0 8.2849998 0 8.2849998Z" fill-rule="evenodd"/>
	<path fill="none" stroke="#222430" stroke-width="1.5" stroke-linejoin="round" transform="translate(154.413 41.3509)" d="M0 9.7700005C0 9.7700005 1.531 7.5830002 3.4200001 4.8850002C5.309 2.187 6.8410001 0 6.8410001 0C6.8410001 0 5.309 2.187 3.4200001 4.8850002C1.531 7.5830002 0 9.7700005 0 9.7700005Z" fill-rule="evenodd"/>
	<path fill="none" stroke="#222430" stroke-width="1.5" stroke-linejoin="round" transform="translate(140.341 32.2645)" d="M0 10.895C0 10.895 1.086 8.4560003 2.425 5.447C3.7650001 2.4389999 4.8509998 0 4.8509998 0C4.8509998 0 3.7650001 2.4389999 2.425 5.447C1.086 8.4560003 0 10.895 0 10.895Z" fill-rule="evenodd"/>
	<path fill="none" stroke="#222430" stroke-width="1.5" stroke-linejoin="round" transform="translate(125.009 26.4083)" d="M0 11.621C0 11.621 0.60100001 9.0200005 1.341 5.8109999C2.082 2.602 2.6830001 0 2.6830001 0C2.6830001 0 2.082 2.602 1.341 5.8109999C0.60100001 9.0200005 0 11.621 0 11.621Z" fill-rule="evenodd"/>
	<path fill="none" stroke="#222430" stroke-width="1.5" stroke-linejoin="round" transform="translate(108.687 24)" d="M0.292 11.919C0.292 11.919 0.38499999 9.2510004 0.5 5.9590001C0.61500001 2.668 0.708 0 0.708 0C0.708 0 0.61500001 2.668 0.5 5.9590001C0.38499999 9.2510004 0.292 11.919 0.292 11.919Z" fill-rule="evenodd"/>
	<path fill="none" stroke="#222430" stroke-width="1.5" stroke-linejoin="round" transform="translate(90.9756 25.126)" d="M1.8660001 11.78C1.8660001 11.78 1.448 9.1429996 0.93300003 5.8899999C0.41800001 2.6370001 0 0 0 0C0 0 0.41800001 2.6370001 0.93300003 5.8899999C1.448 9.1429996 1.8660001 11.78 1.8660001 11.78Z" fill-rule="evenodd"/>
	<path fill="none" stroke="#222430" stroke-width="1.5" stroke-linejoin="round" transform="translate(73.1097 29.7471)" d="M4.079 11.207C4.079 11.207 3.1659999 8.698 2.039 5.6030002C0.91299999 2.5090001 0 0 0 0C0 0 0.91299999 2.5090001 2.039 5.6030002C3.1659999 8.698 4.079 11.207 4.079 11.207Z" fill-rule="evenodd"/>
	<path fill="none" stroke="#222430" stroke-width="1.5" stroke-linejoin="round" transform="translate(56.4528 37.6916)" d="M6.1430001 10.223C6.1430001 10.223 4.7680001 7.934 3.072 5.1110001C1.375 2.2880001 0 0 0 0C0 0 1.375 2.2880001 3.072 5.1110001C4.7680001 7.934 6.1430001 10.223 6.1430001 10.223Z" fill-rule="evenodd"/>
	<path fill="none" stroke="#222430" stroke-width="1.5" stroke-linejoin="round" transform="translate(41.6191 48.6686)" d="M7.98 8.8629999C7.98 8.8629999 6.1939998 6.8790002 3.99 4.4310002C1.786 1.984 0 0 0 0C0 0 1.786 1.984 3.99 4.4310002C6.1939998 6.8790002 7.98 8.8629999 7.98 8.8629999Z" fill-rule="evenodd"/>
	<path fill="none" stroke="#222430" stroke-width="1.5" stroke-linejoin="round" transform="translate(29.1513 62.2738)" d="M9.5249996 7.178C9.5249996 7.178 7.3930001 5.5710001 4.763 3.589C2.132 1.607 0 0 0 0C0 0 2.132 1.607 4.763 3.589C7.3930001 5.5710001 9.5249996 7.178 9.5249996 7.178Z" fill-rule="evenodd"/>
	<path fill="none" stroke="#222430" stroke-width="1.5" stroke-linejoin="round" transform="translate(19.5086 78.0092)" d="M10.72 5.2280002C10.72 5.2280002 8.3199997 4.0580001 5.3600001 2.6140001C2.4000001 1.17 0 0 0 0C0 0 2.4000001 1.17 5.3600001 2.6140001C8.3199997 4.0580001 10.72 5.2280002 10.72 5.2280002Z" fill-rule="evenodd"/>
	<path fill="none" stroke="#222430" stroke-width="1.5" stroke-linejoin="round" transform="translate(13.0465 95.2942)" d="M11.52 3.0869999C11.52 3.0869999 8.941 2.3959999 5.7600002 1.544C2.579 0.69099998 0 0 0 0C0 0 2.579 0.69099998 5.7600002 1.544C8.941 2.3959999 11.52 3.0869999 11.52 3.0869999Z" fill-rule="evenodd"/>
	<path fill="none" stroke="#222430" stroke-width="1.5" stroke-linejoin="round" transform="translate(10 113.411)" d="M11.898 0.91600001C11.898 0.91600001 9.2349997 0.73000002 5.9489999 0.5C2.664 0.27000001 0 0.083999999 0 0.083999999C0 0.083999999 2.664 0.27000001 5.9489999 0.5C9.2349997 0.73000002 11.898 0.91600001 11.898 0.91600001Z" fill-rule="evenodd"/>
	<path fill="none" stroke="#222430" stroke-width="1.5" stroke-linejoin="round" transform="translate(10.4832 130.49)" d="M11.838 0C11.838 0 9.1879997 0.32499999 5.9190001 0.727C2.6500001 1.128 0 1.4529999 0 1.4529999C0 1.4529999 2.6500001 1.128 5.9190001 0.727C9.1879997 0.32499999 11.838 0 11.838 0Z" fill-rule="evenodd"/>
	<path fill="none" stroke="#222430" stroke-width="1.5" stroke-linejoin="round" transform="translate(14.4776 146.274)" d="M11.343 0C11.343 0 8.8039999 0.82499999 5.6719999 1.8430001C2.539 2.8599999 0 3.6860001 0 3.6860001C0 3.6860001 2.539 2.8599999 5.6719999 1.8430001C8.8039999 0.82499999 11.343 0 11.343 0Z" fill-rule="evenodd"/>
	<path fill="none" stroke="#222430" stroke-width="1.5" stroke-linejoin="round" transform="translate(21.8365 161.101)" d="M10.431 0C10.431 0 8.0959997 1.294 5.2150002 2.891C2.335 4.4879999 0 5.7820001 0 5.7820001C0 5.7820001 2.335 4.4879999 5.2150002 2.891C8.0959997 1.294 10.431 0 10.431 0Z" fill-rule="evenodd"/>
	<path fill="none" stroke="#222430" stroke-width="1.5" stroke-linejoin="round" transform="translate(32.2891 174.426)" d="M9.1359997 0C9.1359997 0 7.0910001 1.716 4.5679998 3.8329999C2.0450001 5.9499998 0 7.6659999 0 7.6659999C0 7.6659999 2.0450001 5.9499998 4.5679998 3.8329999C7.0910001 1.716 9.1359997 0 9.1359997 0Z" fill-rule="evenodd"/>
	<path fill="none" stroke="#222430" stroke-width="1.5" stroke-linejoin="round" transform="translate(45.4509 185.758)" d="M7.506 0C7.506 0 5.8260002 2.075 3.753 4.6339998C1.681 7.1939998 0 9.2690001 0 9.2690001C0 9.2690001 1.681 7.1939998 3.753 4.6339998C5.8260002 2.075 7.506 0 7.506 0Z" fill-rule="evenodd"/>
	<path fill="none" stroke="#222430" stroke-width="1.5" stroke-linejoin="round" transform="translate(60.84 194.682)" d="M5.599 0C5.599 0 4.3460002 2.3570001 2.799 5.2649999L0 10.531C0 10.531 1.253 8.1730003 2.799 5.2649999C4.3460002 2.3570001 5.599 0 5.599 0Z" fill-rule="evenodd"/>
	<path fill="none" stroke="#222430" stroke-width="1.5" stroke-linejoin="round" transform="translate(77.8892 200.869)" d="M3.487 0C3.487 0 2.7060001 2.553 1.744 5.7030001C0.78100002 8.8520002 0 11.405 0 11.405C0 11.405 0.78100002 8.8520002 1.744 5.7030001C2.7060001 2.553 3.487 0 3.487 0Z" fill-rule="evenodd"/>
	<path fill="none" stroke="#222430" stroke-width="1.5" stroke-linejoin="round" transform="translate(95.9725 204.092)" d="M1.247 0C1.247 0 0.96799999 2.655 0.62400001 5.9310002C0.27900001 9.2060003 0 11.861 0 11.861C0 11.861 0.27900001 9.2060003 0.62400001 5.9310002C0.96799999 2.655 1.247 0 1.247 0Z" fill-rule="evenodd"/>
	<path fill="none" stroke="#222430" stroke-width="1.5" stroke-linejoin="round" transform="translate(113.387 204.233)" d="M0 0C0 0 0.233 2.6600001 0.51999998 5.941C0.80699998 9.2209997 1.039 11.881 1.039 11.881C1.039 11.881 0.80699998 9.2209997 0.51999998 5.941C0.233 2.6600001 0 0 0 0Z" fill-rule="evenodd"/>
	<path fill="none" stroke="#222430" stroke-width="1.5" stroke-linejoin="round" transform="translate(129.284 201.287)" d="M0 0C0 0 0.736 2.566 1.6440001 5.7319999C2.5510001 8.8979998 3.2869999 11.465 3.2869999 11.465C3.2869999 11.465 2.5510001 8.8979998 1.6440001 5.7319999C0.736 2.566 0 0 0 0Z" fill-rule="evenodd"/>
	<path fill="none" stroke="#222430" stroke-width="1.5" stroke-linejoin="round" transform="translate(144.327 195.361)" d="M0 0C0 0 1.212 2.3789999 2.707 5.3130002C4.2020001 8.2480001 5.415 10.627 5.415 10.627C5.415 10.627 4.2020001 8.2480001 2.707 5.3130002C1.212 2.3789999 0 0 0 0Z" fill-rule="evenodd"/>
	<path fill="none" stroke="#222430" stroke-width="1.5" stroke-linejoin="round" transform="translate(157.963 186.674)" d="M0 0C0 0 1.6440001 2.1040001 3.671 4.6989999C5.6989999 7.2940001 7.3429999 9.3979998 7.3429999 9.3979998C7.3429999 9.3979998 5.6989999 7.2940001 3.671 4.6989999C1.6440001 2.1040001 0 0 0 0Z" fill-rule="evenodd"/>
	<path fill="none" stroke="#222430" stroke-width="1.5" stroke-linejoin="round" transform="translate(169.69 175.545)" d="M0 0C0 0 2.0150001 1.752 4.5009999 3.9119999C6.9860001 6.073 9.0010004 7.8249998 9.0010004 7.8249998C9.0010004 7.8249998 6.9860001 6.073 4.5009999 3.9119999C2.0150001 1.752 0 0 0 0Z" fill-rule="evenodd"/>
	<path fill="none" stroke="#222430" stroke-width="1.5" stroke-linejoin="round" transform="translate(179.079 162.383)" d="M0 0C0 0 2.312 1.335 5.164 2.9820001C8.0170002 4.6279998 10.329 5.9629998 10.329 5.9629998C10.329 5.9629998 8.0170002 4.6279998 5.164 2.9820001C2.312 1.335 0 0 0 0Z" fill-rule="evenodd"/>
	<path fill="none" stroke="#222430" stroke-width="1.5" stroke-linejoin="round" transform="translate(185.784 147.67)" d="M0 0C0 0 2.5239999 0.86900002 5.638 1.941C8.7519999 3.0139999 11.277 3.8829999 11.277 3.8829999C11.277 3.8829999 8.7519999 3.0139999 5.638 1.941C2.5239999 0.86900002 0 0 0 0Z" fill-rule="evenodd"/>
	<path fill="none" stroke="#222430" stroke-width="1.5" stroke-linejoin="round" transform="translate(189.558 131.949)" d="M0 0C0 0 2.6440001 0.37200001 5.9050002 0.82999998C9.1669998 1.288 11.811 1.66 11.811 1.66C11.811 1.66 9.1669998 1.288 5.9050002 0.82999998C2.6440001 0.37200001 0 0 0 0Z" fill-rule="evenodd"/>
	<path fill="none" stroke="#2E302E" stroke-width="1.5" stroke-miterlimit="10" transform="translate(0.991379 14.9828)" d="M210.51724 105.25862Q210.51724 107.84258 210.39044 110.42342Q210.26367 113.00426 210.01041 115.57578Q209.75711 118.14728 209.37796 120.70326Q208.99881 123.25925 208.49471 125.79355Q207.9906 128.32785 207.36275 130.83437Q206.73491 133.34088 205.98483 135.81357Q205.23474 138.28625 204.36423 140.71916Q203.49371 143.15207 202.50488 145.53934Q201.51605 147.92661 200.41125 150.26247Q199.30649 152.59833 198.08841 154.87718Q196.87033 157.15602 195.54192 159.37234Q194.2135 161.58868 192.77792 163.73715Q191.34235 165.88562 189.8031 167.96109Q188.26384 170.03654 186.6246 172.03398Q184.98537 174.0314 183.25009 175.94597Q181.51482 177.86057 179.68768 179.6877Q177.86053 181.51483 175.94597 183.25012Q174.03137 184.98538 172.03397 186.62463Q170.03653 188.26385 167.96109 189.80312Q165.88562 191.34238 163.73715 192.77795Q161.58868 194.21352 159.37234 195.54193Q157.15601 196.87036 154.87717 198.08842Q152.59833 199.30649 150.26245 200.41127Q147.92661 201.51605 145.53934 202.50488Q143.15207 203.49371 140.71916 204.36423Q138.28625 205.23474 135.81358 205.98483Q133.34088 206.73491 130.83438 207.36276Q128.32785 207.9906 125.79355 208.49471Q123.25925 208.99881 120.70326 209.37796Q118.14728 209.75711 115.57577 210.01039Q113.00426 210.26366 110.42342 210.39044Q107.84258 210.51724 105.25862 210.51724Q102.67467 210.51724 100.09383 210.39044Q97.512985 210.26367 94.941475 210.01041Q92.369965 209.75711 89.813965 209.37796Q87.25798 208.99881 84.723679 208.49471Q82.189377 207.9906 79.682854 207.36275Q77.176338 206.73491 74.703651 205.98483Q72.230957 205.23474 69.79805 204.36423Q67.365143 203.49371 64.977882 202.50488Q62.590618 201.51605 60.254749 200.41125Q57.918884 199.30649 55.640045 198.08841Q53.361198 196.87033 51.144867 195.54192Q48.928539 194.2135 46.78006 192.77792Q44.631584 191.34235 42.556129 189.8031Q40.480682 188.26384 38.483257 186.6246Q36.485832 184.98537 34.571247 183.25009Q32.656666 181.51482 30.829535 179.68768Q29.002403 177.86053 27.267126 175.94597Q25.531849 174.03137 23.892607 172.03397Q22.253363 170.03653 20.714102 167.96109Q19.174843 165.88562 17.739273 163.73715Q16.303705 161.58868 14.975287 159.37234Q13.64687 157.15601 12.428802 154.87717Q11.210735 152.59833 10.105952 150.26245Q9.0011702 147.92661 8.0123339 145.53934Q7.0234976 143.15207 6.1529899 140.71916Q5.2824821 138.28625 4.5323997 135.81358Q3.7823176 133.34088 3.1544681 130.83438Q2.5266187 128.32785 2.0225143 125.79355Q1.51841 123.25925 1.1392653 120.70326Q0.76012063 118.14728 0.50684893 115.57577Q0.25357717 113.00426 0.12678859 110.42342Q0 107.84258 0 105.25862Q0 102.67467 0.12678859 100.09383Q0.25357717 97.512985 0.50684893 94.941475Q0.76012063 92.369965 1.1392653 89.813965Q1.51841 87.25798 2.0225143 84.723679Q2.5266187 82.189377 3.1544683 79.682854Q3.7823179 77.176338 4.5324001 74.703651Q5.2824821 72.230957 6.1529899 69.79805Q7.0234976 67.365143 8.0123339 64.977882Q9.0011702 62.590618 10.105953 60.254749Q11.210735 57.918884 12.428803 55.640045Q13.64687 53.361198 14.975288 51.144867Q16.303705 48.928539 17.739273 46.78006Q19.174843 44.631584 20.714102 42.556129Q22.253361 40.480682 23.892605 38.483257Q25.531849 36.485832 27.267126 34.571247Q29.002403 32.656666 30.829535 30.829535Q32.656666 29.002403 34.571251 27.267126Q36.485832 25.531849 38.483257 23.892607Q40.480682 22.253363 42.556129 20.714102Q44.631584 19.174843 46.78006 17.739273Q48.928539 16.303705 51.144871 14.975287Q53.361198 13.64687 55.640045 12.428802Q57.918884 11.210735 60.254753 10.105952Q62.590618 9.0011702 64.977882 8.0123339Q67.365143 7.0234976 69.79805 6.1529899Q72.230957 5.2824821 74.703651 4.5323997Q77.176338 3.7823176 79.682861 3.1544681Q82.189377 2.5266187 84.723679 2.0225143Q87.25798 1.51841 89.813972 1.1392653Q92.369965 0.76012063 94.941475 0.50684893Q97.512985 0.25357717 100.09383 0.12678859Q102.67467 0 105.25862 0Q107.84258 0 110.42342 0.12678859Q113.00426 0.25357717 115.57578 0.50684893Q118.14728 0.76012063 120.70326 1.1392653Q123.25925 1.51841 125.79355 2.0225143Q128.32785 2.5266187 130.83437 3.1544683Q133.34088 3.7823179 135.81357 4.5324001Q138.28625 5.2824821 140.71916 6.1529899Q143.15207 7.0234976 145.53934 8.0123339Q147.92661 9.0011702 150.26247 10.105953Q152.59833 11.210735 154.87718 12.428803Q157.15602 13.64687 159.37234 14.975288Q161.58868 16.303705 163.73715 17.739273Q165.88562 19.174843 167.96109 20.714102Q170.03654 22.253361 172.03398 23.892605Q174.0314 25.531849 175.94597 27.267126Q177.86057 29.002403 179.6877 30.829535Q181.51483 32.656666 183.25012 34.571251Q184.98538 36.485832 186.62463 38.483257Q188.26385 40.480682 189.80312 42.556129Q191.34238 44.631584 192.77795 46.78006Q194.21352 48.928539 195.54193 51.144871Q196.87036 53.361198 198.08842 55.640045Q199.30649 57.918884 200.41127 60.254753Q201.51605 62.590618 202.50488 64.977882Q203.49371 67.365143 204.36423 69.79805Q205.23474 72.230957 205.98483 74.703651Q206.73491 77.176338 207.36276 79.682861Q207.9906 82.189377 208.49471 84.723679Q208.99881 87.25798 209.37796 89.813972Q209.75711 92.369965 210.01039 94.941475Q210.26366 97.512985 210.39044 100.09383Q210.51724 102.67467 210.51724 105.25862Z"/>
	<path fill="none" stroke="#222430" stroke-width="1.5" stroke-linejoin="round" transform="translate(105.25 121.241)" d="M0.95689654 0.95689654L35.405174 64.112068" fill-rule="evenodd"/>
	<path fill="#2E302E" transform="translate(176.248 37.9483)" d="M19.75437 27.363132C23.333784 24.560667 25.691526 20.208765 25.691526 15.310345C25.691526 6.8546748 18.836851 0 10.381182 0C6.3752861 0 2.7287202 1.5384736 0 4.0567985C-0.021520257 4.0767589 6.5208774 9.2648554 11.09227 14.673985C16.305782 20.842907 19.541143 27.530075 19.75437 27.363132Z" fill-rule="evenodd"/>
	<path fill="#2E302E" transform="translate(95 109)" d="M22 11Q22 11.270035 21.98675 11.539743Q21.973499 11.809454 21.947033 12.078188Q21.920563 12.346922 21.880941 12.614035Q21.841316 12.881145 21.788635 13.145992Q21.735954 13.410839 21.670343 13.672781Q21.604731 13.934723 21.526344 14.19313Q21.447956 14.451536 21.356983 14.705786Q21.26601 14.960035 21.162672 15.209515Q21.059334 15.458994 20.94388 15.703102Q20.828426 15.947212 20.701134 16.185362Q20.573839 16.423512 20.435013 16.655127Q20.296188 16.886742 20.146164 17.111269Q19.99614 17.335794 19.835281 17.552689Q19.674419 17.769583 19.503113 17.978323Q19.331804 18.187061 19.150459 18.387144Q18.969116 18.587227 18.778173 18.778172Q18.587231 18.969116 18.387146 19.150459Q18.187065 19.331804 17.978325 19.503113Q17.769585 19.674419 17.552689 19.835279Q17.335796 19.99614 17.111271 20.146164Q16.886745 20.296188 16.655128 20.435013Q16.423512 20.573837 16.185364 20.701132Q15.947214 20.828424 15.703104 20.943878Q15.458996 21.059334 15.209516 21.162672Q14.960036 21.26601 14.705787 21.356983Q14.451537 21.447956 14.19313 21.526342Q13.934723 21.604729 13.672781 21.670343Q13.410839 21.735954 13.145992 21.788635Q12.881145 21.841316 12.614035 21.880941Q12.346922 21.920563 12.078188 21.947033Q11.809454 21.973499 11.539744 21.986752Q11.270035 22 11 22Q10.729965 22 10.460255 21.98675Q10.190545 21.973499 9.9218111 21.947033Q9.6530762 21.920563 9.3859644 21.880941Q9.1188526 21.841316 8.8540058 21.788635Q8.58916 21.735954 8.3272181 21.670343Q8.0652752 21.604731 7.8068686 21.526344Q7.548461 21.447956 7.2942109 21.356983Q7.0399613 21.26601 6.7904816 21.162672Q6.5410018 21.059334 6.2968936 20.94388Q6.0527849 20.828426 5.8146358 20.701134Q5.5764861 20.573839 5.3448696 20.435013Q5.1132526 20.296188 4.8887272 20.146164Q4.6642013 19.99614 4.4473071 19.835281Q4.2304134 19.674419 4.0216737 19.503113Q3.8129337 19.331804 3.6128511 19.150459Q3.4127684 18.969116 3.2218251 18.778173Q3.0308816 18.587231 2.8495374 18.387146Q2.6681931 18.187065 2.4968848 17.978325Q2.3255763 17.769585 2.1647167 17.552689Q2.0038571 17.335796 1.8538339 17.111271Q1.7038107 16.886745 1.564985 16.655128Q1.4261594 16.423512 1.2988659 16.185364Q1.1715723 15.947214 1.0561175 15.703104Q0.94066274 15.458996 0.83732498 15.209516Q0.73398709 14.960036 0.64301515 14.705787Q0.5520432 14.451537 0.47365624 14.19313Q0.39526927 13.934723 0.32965615 13.672781Q0.26404303 13.410839 0.21136187 13.145992Q0.15868069 12.881145 0.11905836 12.614035Q0.079436034 12.346922 0.052967999 12.078188Q0.026499959 11.809454 0.013249979 11.539744Q0 11.270035 0 11Q0 10.729965 0.013249979 10.460255Q0.026499959 10.190545 0.052967999 9.9218111Q0.079436034 9.6530762 0.11905836 9.3859644Q0.15868069 9.1188526 0.21136187 8.8540058Q0.26404303 8.58916 0.32965615 8.3272181Q0.39526927 8.0652752 0.47365624 7.8068686Q0.5520432 7.548461 0.64301515 7.2942109Q0.73398709 7.0399613 0.83732498 6.7904816Q0.94066274 6.5410018 1.0561175 6.2968936Q1.1715723 6.0527849 1.2988659 5.8146358Q1.4261594 5.5764861 1.564985 5.3448696Q1.7038107 5.1132526 1.8538339 4.8887272Q2.0038571 4.6642013 2.1647167 4.4473071Q2.3255763 4.2304134 2.4968848 4.0216737Q2.6681931 3.8129337 2.8495374 3.6128511Q3.0308816 3.4127684 3.2218251 3.2218251Q3.4127684 3.0308816 3.6128511 2.8495374Q3.8129337 2.6681931 4.0216737 2.4968848Q4.2304134 2.3255763 4.4473076 2.1647167Q4.6642013 2.0038571 4.8887272 1.8538339Q5.1132526 1.7038107 5.3448696 1.564985Q5.5764856 1.4261594 5.8146353 1.2988659Q6.0527849 1.1715723 6.2968931 1.0561175Q6.5410018 0.94066274 6.7904816 0.83732498Q7.0399613 0.73398709 7.2942114 0.64301515Q7.548461 0.5520432 7.8068686 0.47365624Q8.0652752 0.39526927 8.3272181 0.32965615Q8.58916 0.26404303 8.8540058 0.21136187Q9.1188526 0.15868069 9.3859644 0.11905836Q9.6530762 0.079436034 9.9218121 0.052967999Q10.190546 0.026499959 10.460256 0.013249979Q10.729965 0 11 0Q11.270035 0 11.539743 0.013249979Q11.809454 0.026499959 12.078188 0.052967999Q12.346922 0.079436034 12.614035 0.11905836Q12.881145 0.15868069 13.145992 0.21136187Q13.410839 0.26404303 13.672781 0.32965615Q13.934723 0.39526927 14.19313 0.47365624Q14.451536 0.5520432 14.705786 0.64301515Q14.960035 0.73398709 15.209515 0.83732498Q15.458994 0.94066274 15.703102 1.0561175Q15.947212 1.1715723 16.185362 1.2988659Q16.423512 1.4261594 16.655127 1.564985Q16.886742 1.7038107 17.111269 1.8538339Q17.335794 2.0038571 17.552689 2.1647167Q17.769583 2.3255763 17.978323 2.4968848Q18.187061 2.6681931 18.387144 2.8495374Q18.587227 3.0308816 18.778172 3.2218251Q18.969116 3.4127684 19.150459 3.6128511Q19.331804 3.8129337 19.503113 4.0216737Q19.674419 4.2304134 19.835279 4.4473076Q19.99614 4.6642013 20.146164 4.8887272Q20.296188 5.1132526 20.435013 5.3448696Q20.573837 5.5764856 20.701132 5.8146353Q20.828424 6.0527849 20.943878 6.2968931Q21.059334 6.5410018 21.162672 6.7904816Q21.26601 7.0399613 21.356983 7.2942114Q21.447956 7.548461 21.526342 7.8068686Q21.604729 8.0652752 21.670343 8.3272181Q21.735954 8.58916 21.788635 8.8540058Q21.841316 9.1188526 21.880941 9.3859644Q21.920563 9.6530762 21.947033 9.9218121Q21.973499 10.190546 21.986752 10.460256Q22 10.729965 22 11Z"/>
	<path fill="#2E302E" transform="translate(100 3)" d="M0 0L11.482759 0L11.482759 11.482759L0 11.482759L0 0Z"/>
	<path fill="#2E302E" transform="matrix(1 0 0 -1 90 7)" d="M0 0L32 0L32 6L0 6L0 0Z"/>
</svg>
