<?xml version="1.0" encoding="utf-8" ?>
<svg xmlns="http://www.w3.org/2000/svg" xmlns:xlink="http://www.w3.org/1999/xlink" width="21" height="18">
	<path fill="#002657" transform="translate(4.3869e-05 0.098505)" d="M10.620089 0.18247381C10.078373 -0.098921858 9.4444962 -0.052322738 8.9484196 0.30470458L4.2081289 3.7561162C4.2081289 3.7561162 4.1254492 3.8027227 4.0703297 3.8027227L1.6079507 3.8027227C0.72603613 3.8027227 0 4.5440316 0 5.4444976L0 11.072411C0 11.972877 0.72603613 12.714186 1.6079507 12.714186L4.0703297 12.714186C4.1159759 12.714186 4.1624823 12.732653 4.2081289 12.760793L8.9484196 16.212204C9.2240181 16.418861 9.5547361 16.52174 9.8854542 16.52174C10.133492 16.52174 10.391011 16.46546 10.620089 16.334435C11.161804 16.05304 11.492522 15.490248 11.492522 14.871178L11.493383 1.6358261C11.493383 1.0167557 11.162665 0.46364436 10.62095 0.17256868L10.620089 0.18247381Z"/>
	<path fill="#002657" transform="translate(12.9301 4.40852)" d="M0.71589822 7.1833649C0.53349531 7.1833649 0.3519972 7.1160026 0.20823097 6.9722872C-0.069410324 6.6947594 -0.069410324 6.2348952 0.20823097 5.9564476L5.9588795 0.20814599C6.2365208 -0.069381997 6.6965723 -0.069381997 6.9751339 0.20814599C7.2527752 0.48567399 7.2527752 0.9455381 6.9751339 1.2239858L1.2244855 6.9722872C1.0807194 7.1159949 0.89830875 7.1833649 0.71681833 7.1833649L0.71589822 7.1833649Z"/>
	<path fill="#002657" transform="translate(12.9301 4.40852)" d="M6.4665465 7.1833649C6.2841434 7.1833649 6.1026454 7.1160026 5.9588795 6.9722872L0.20823097 1.2239858C-0.069410324 0.9464578 -0.069410324 0.48659372 0.20823097 0.20814599C0.48587227 -0.069381997 0.94592416 -0.069381997 1.2244855 0.20814599L6.9751339 5.9564476C7.2527752 6.2339754 7.2527752 6.6938396 6.9751339 6.9722872C6.8313675 7.1159949 6.6489573 7.1833649 6.4674668 7.1833649L6.4665465 7.1833649Z"/>
</svg>
