<?xml version="1.0" encoding="utf-8" ?>
<svg xmlns="http://www.w3.org/2000/svg" xmlns:xlink="http://www.w3.org/1999/xlink" width="56" height="11">
	<path fill="#002657" transform="translate(0.0139904 0.0224609)" d="M8.8001738 2.8441114L7.1400375 2.6500409C6.8069973 2.6125622 6.517983 2.3996205 6.3797846 2.0896342L5.6753874 0.54797095C5.5710135 0.32793325 5.3885565 0.15615882 5.1646328 0.066918977C4.9407802 -0.022306327 4.6919084 -0.022306327 4.4680562 0.066918977C4.2441325 0.15614428 4.0616751 0.32791507 3.9573016 0.54797095L3.2614949 2.0939591C3.123214 2.4039452 2.8342822 2.6169505 2.5012419 2.6544383L0.84110588 2.8485091C0.59858733 2.8776832 0.37634581 3.0003402 0.22025056 3.191004C0.064072996 3.3817313 -0.014017577 3.6259913 0.002071579 3.8734317C0.018080737 4.1209445 0.12699968 4.3527026 0.30638748 4.5210066L1.539096 5.6680045C1.7788764 5.9017434 1.8814425 6.2455106 1.8097124 6.5750856L1.4767976 8.238843C1.4287001 8.4829578 1.4750499 8.7364302 1.6061999 8.9467468C1.7372791 9.1570625 1.9431593 9.3079758 2.1810606 9.3682327C2.4188902 9.4284964 2.6704285 9.3934307 2.883507 9.270278L4.3395667 8.4351015C4.6313014 8.2671576 4.9884663 8.2671576 5.2802544 8.4351015L6.7491817 9.270278C6.9628868 9.3934307 7.2151232 9.428071 7.453382 9.3670263C7.6916232 9.3059101 7.8974357 9.1538754 8.0279026 8.9424143C8.1584234 8.7310266 8.2034445 8.4766264 8.153738 8.2323122L7.8230066 6.5750966C7.7561035 6.2420506 7.8661413 5.8977203 8.112916 5.6680155L9.345624 4.5210176C9.5272408 4.3520794 9.6374302 4.1183386 9.653162 3.8687544C9.6688213 3.6191881 9.5887747 3.3730924 9.4298105 3.1821473C9.2707682 2.9911292 9.0451746 2.8700349 8.8002043 2.8441224L8.8001738 2.8441114Z"/>
	<path fill="#002657" transform="translate(11.4794 0.0224609)" d="M8.8001738 2.8441114L7.1400375 2.6500409C6.8069973 2.6125622 6.517983 2.3996205 6.3797846 2.0896342L5.6753874 0.54797095C5.5710135 0.32793325 5.3885565 0.15615882 5.1646328 0.066918977C4.9407802 -0.022306327 4.6919084 -0.022306327 4.4680562 0.066918977C4.2441325 0.15614428 4.0616751 0.32791507 3.9573016 0.54797095L3.2614949 2.0939591C3.123214 2.4039452 2.8342822 2.6169505 2.5012419 2.6544383L0.84110588 2.8485091C0.59858733 2.8776832 0.37634581 3.0003402 0.22025056 3.191004C0.064072996 3.3817313 -0.014017577 3.6259913 0.002071579 3.8734317C0.018080737 4.1209445 0.12699968 4.3527026 0.30638748 4.5210066L1.539096 5.6680045C1.7788764 5.9017434 1.8814425 6.2455106 1.8097124 6.5750856L1.4767976 8.238843C1.4287001 8.4829578 1.4750499 8.7364302 1.6061999 8.9467468C1.7372791 9.1570625 1.9431593 9.3079758 2.1810606 9.3682327C2.4188902 9.4284964 2.6704285 9.3934307 2.883507 9.270278L4.3395667 8.4351015C4.6313014 8.2671576 4.9884663 8.2671576 5.2802544 8.4351015L6.7491817 9.270278C6.9628868 9.3934307 7.2151232 9.428071 7.453382 9.3670263C7.6916232 9.3059101 7.8974357 9.1538754 8.0279026 8.9424143C8.1584234 8.7310266 8.2034445 8.4766264 8.153738 8.2323122L7.8230066 6.5750966C7.7561035 6.2420506 7.8661413 5.8977203 8.112916 5.6680155L9.345624 4.5210176C9.5272408 4.3520794 9.6374302 4.1183386 9.653162 3.8687544C9.6688213 3.6191881 9.5887747 3.3730924 9.4298105 3.1821473C9.2707682 2.9911292 9.0451746 2.8700349 8.8002043 2.8441224L8.8001738 2.8441114Z"/>
	<path fill="#002657" transform="translate(22.9448 0.0224609)" d="M8.8001738 2.8441114L7.1400375 2.6500409C6.8069973 2.6125622 6.517983 2.3996205 6.3797846 2.0896342L5.6753874 0.54797095C5.5710135 0.32793325 5.3885565 0.15615882 5.1646328 0.066918977C4.9407802 -0.022306327 4.6919084 -0.022306327 4.4680562 0.066918977C4.2441325 0.15614428 4.0616751 0.32791507 3.9573016 0.54797095L3.2614949 2.0939591C3.123214 2.4039452 2.8342822 2.6169505 2.5012419 2.6544383L0.84110588 2.8485091C0.59858733 2.8776832 0.37634581 3.0003402 0.22025056 3.191004C0.064072996 3.3817313 -0.014017577 3.6259913 0.002071579 3.8734317C0.018080737 4.1209445 0.12699968 4.3527026 0.30638748 4.5210066L1.539096 5.6680045C1.7788764 5.9017434 1.8814425 6.2455106 1.8097124 6.5750856L1.4767976 8.238843C1.4287001 8.4829578 1.4750499 8.7364302 1.6061999 8.9467468C1.7372791 9.1570625 1.9431593 9.3079758 2.1810606 9.3682327C2.4188902 9.4284964 2.6704285 9.3934307 2.883507 9.270278L4.3395667 8.4351015C4.6313014 8.2671576 4.9884663 8.2671576 5.2802544 8.4351015L6.7491817 9.270278C6.9628868 9.3934307 7.2151232 9.428071 7.453382 9.3670263C7.6916232 9.3059101 7.8974357 9.1538754 8.0279026 8.9424143C8.1584234 8.7310266 8.2034445 8.4766264 8.153738 8.2323122L7.8230066 6.5750966C7.7561035 6.2420506 7.8661413 5.8977203 8.112916 5.6680155L9.345624 4.5210176C9.5272408 4.3520794 9.6374302 4.1183386 9.653162 3.8687544C9.6688213 3.6191881 9.5887747 3.3730924 9.4298105 3.1821473C9.2707682 2.9911292 9.0451746 2.8700349 8.8002043 2.8441224L8.8001738 2.8441114Z"/>
	<path fill="#002657" transform="translate(34.4103 0.0224609)" d="M8.8001738 2.8441114L7.1400375 2.6500409C6.8069973 2.6125622 6.517983 2.3996205 6.3797846 2.0896342L5.6753874 0.54797095C5.5710135 0.32793325 5.3885565 0.15615882 5.1646328 0.066918977C4.9407802 -0.022306327 4.6919084 -0.022306327 4.4680562 0.066918977C4.2441325 0.15614428 4.0616751 0.32791507 3.9573016 0.54797095L3.2614949 2.0939591C3.123214 2.4039452 2.8342822 2.6169505 2.5012419 2.6544383L0.84110588 2.8485091C0.59858733 2.8776832 0.37634581 3.0003402 0.22025056 3.191004C0.064072996 3.3817313 -0.014017577 3.6259913 0.002071579 3.8734317C0.018080737 4.1209445 0.12699968 4.3527026 0.30638748 4.5210066L1.539096 5.6680045C1.7788764 5.9017434 1.8814425 6.2455106 1.8097124 6.5750856L1.4767976 8.238843C1.4287001 8.4829578 1.4750499 8.7364302 1.6061999 8.9467468C1.7372791 9.1570625 1.9431593 9.3079758 2.1810606 9.3682327C2.4188902 9.4284964 2.6704285 9.3934307 2.883507 9.270278L4.3395667 8.4351015C4.6313014 8.2671576 4.9884663 8.2671576 5.2802544 8.4351015L6.7491817 9.270278C6.9628868 9.3934307 7.2151232 9.428071 7.453382 9.3670263C7.6916232 9.3059101 7.8974357 9.1538754 8.0279026 8.9424143C8.1584234 8.7310266 8.2034445 8.4766264 8.153738 8.2323122L7.8230066 6.5750966C7.7561035 6.2420506 7.8661413 5.8977203 8.112916 5.6680155L9.345624 4.5210176C9.5272408 4.3520794 9.6374302 4.1183386 9.653162 3.8687544C9.6688213 3.6191881 9.5887747 3.3730924 9.4298105 3.1821473C9.2707682 2.9911292 9.0451746 2.8700349 8.8002043 2.8441224L8.8001738 2.8441114Z"/>
	<path fill="#002657" transform="translate(45.8757 0.0224609)" d="M8.8001738 2.8441114L7.1400375 2.6500409C6.8069973 2.6125622 6.517983 2.3996205 6.3797846 2.0896342L5.6753874 0.54797095C5.5710135 0.32793325 5.3885565 0.15615882 5.1646328 0.066918977C4.9407802 -0.022306327 4.6919084 -0.022306327 4.4680562 0.066918977C4.2441325 0.15614428 4.0616751 0.32791507 3.9573016 0.54797095L3.2614949 2.0939591C3.123214 2.4039452 2.8342822 2.6169505 2.5012419 2.6544383L0.84110588 2.8485091C0.59858733 2.8776832 0.37634581 3.0003402 0.22025056 3.191004C0.064072996 3.3817313 -0.014017577 3.6259913 0.002071579 3.8734317C0.018080737 4.1209445 0.12699968 4.3527026 0.30638748 4.5210066L1.539096 5.6680045C1.7788764 5.9017434 1.8814425 6.2455106 1.8097124 6.5750856L1.4767976 8.238843C1.4287001 8.4829578 1.4750499 8.7364302 1.6061999 8.9467468C1.7372791 9.1570625 1.9431593 9.3079758 2.1810606 9.3682327C2.4188902 9.4284964 2.6704285 9.3934307 2.883507 9.270278L4.3395667 8.4351015C4.6313014 8.2671576 4.9884663 8.2671576 5.2802544 8.4351015L6.7491817 9.270278C6.9628868 9.3934307 7.2151232 9.428071 7.453382 9.3670263C7.6916232 9.3059101 7.8974357 9.1538754 8.0279026 8.9424143C8.1584234 8.7310266 8.2034445 8.4766264 8.153738 8.2323122L7.8230066 6.5750966C7.7561035 6.2420506 7.8661413 5.8977203 8.112916 5.6680155L9.345624 4.5210176C9.5272408 4.3520794 9.6374302 4.1183386 9.653162 3.8687544C9.6688213 3.6191881 9.5887747 3.3730924 9.4298105 3.1821473C9.2707682 2.9911292 9.0451746 2.8700349 8.8002043 2.8441224L8.8001738 2.8441114Z"/>
</svg>
